<svg width="374" height="373" viewBox="0 0 374 373" fill="none" xmlns="http://www.w3.org/2000/svg">
<path d="M172.341 8.66026C181.624 3.30127 193.059 3.30127 202.341 8.66025L333.802 84.5593C343.084 89.9182 348.802 99.8221 348.802 110.54V262.338C348.802 273.056 343.084 282.96 333.802 288.319L202.341 364.218C193.059 369.577 181.624 369.577 172.341 364.218L40.8806 288.319C31.5985 282.96 25.8806 273.056 25.8806 262.338V110.54C25.8806 99.8221 31.5985 89.9182 40.8806 84.5593L172.341 8.66026Z" fill="#EDE2DC"/>
<path d="M129.196 111.829H131.952V93.3173C131.952 92.26 132.342 91.2286 133.122 90.2233C133.902 89.2006 134.934 88.36 136.216 87.7013C137.516 87.0253 138.946 86.6873 140.506 86.6873C142.725 86.6873 144.502 87.4153 145.836 88.8713C147.188 90.31 147.864 92.26 147.864 94.7213V111.829H150.62V93.7073C150.62 92.5806 150.993 91.48 151.738 90.4053C152.484 89.3306 153.498 88.4466 154.78 87.7533C156.063 87.0426 157.493 86.6873 159.07 86.6873C161.324 86.6873 163.126 87.4499 164.478 88.9753C165.848 90.5006 166.532 92.5633 166.532 95.1633V111.829H169.288V94.3573C169.288 91.1333 168.361 88.6633 166.506 86.9473C164.669 85.2313 162.346 84.3733 159.538 84.3733C157.285 84.3733 155.352 84.902 153.74 85.9593C152.146 87.0166 150.863 88.4033 149.892 90.1193C149.303 88.334 148.194 86.93 146.564 85.9073C144.952 84.8846 143.037 84.3733 140.818 84.3733C136.918 84.3733 133.963 85.916 131.952 89.0013V85.2053H129.196V111.829ZM189.299 112.661C191.795 112.661 194.049 112.046 196.059 110.815C198.07 109.567 199.63 107.851 200.739 105.667V111.829H203.495V85.2053H200.739V91.3153C199.734 89.1486 198.209 87.45 196.163 86.2193C194.118 84.9886 191.83 84.3733 189.299 84.3733C186.769 84.3733 184.498 84.9886 182.487 86.2193C180.494 87.4326 178.917 89.1053 177.755 91.2373C176.594 93.3693 176.013 95.796 176.013 98.5173C176.013 101.239 176.594 103.665 177.755 105.797C178.934 107.929 180.52 109.611 182.513 110.841C184.524 112.055 186.786 112.661 189.299 112.661ZM189.871 110.217C187.739 110.217 185.841 109.715 184.177 108.709C182.513 107.704 181.205 106.326 180.251 104.575C179.298 102.807 178.821 100.788 178.821 98.5173C178.821 96.2466 179.298 94.236 180.251 92.4853C181.205 90.7173 182.513 89.3306 184.177 88.3253C185.841 87.3199 187.739 86.8173 189.871 86.8173C192.021 86.8173 193.919 87.3199 195.565 88.3253C197.229 89.3133 198.529 90.6913 199.465 92.4593C200.419 94.2099 200.895 96.2293 200.895 98.5173C200.895 100.788 200.419 102.807 199.465 104.575C198.529 106.343 197.229 107.73 195.565 108.735C193.919 109.723 192.021 110.217 189.871 110.217ZM213.911 79.9273C214.448 79.9273 214.899 79.7453 215.263 79.3813C215.644 78.9999 215.835 78.5406 215.835 78.0033C215.835 77.466 215.644 77.0153 215.263 76.6513C214.899 76.2699 214.448 76.0793 213.911 76.0793C213.373 76.0793 212.914 76.2699 212.533 76.6513C212.169 77.0153 211.987 77.466 211.987 78.0033C211.987 78.5406 212.169 78.9999 212.533 79.3813C212.914 79.7453 213.373 79.9273 213.911 79.9273ZM212.533 111.829H215.289V85.2053H212.533V111.829ZM224.381 111.829H227.137V94.0713C227.137 92.7713 227.457 91.5666 228.099 90.4573C228.757 89.3306 229.702 88.4206 230.933 87.7273C232.181 87.0339 233.671 86.6873 235.405 86.6873C237.883 86.6873 239.799 87.4673 241.151 89.0273C242.52 90.57 243.205 92.8146 243.205 95.7613V111.829H245.961V95.2673C245.961 91.766 245.094 89.0793 243.361 87.2073C241.627 85.318 239.209 84.3733 236.107 84.3733C233.819 84.3733 231.912 84.8326 230.387 85.7513C228.861 86.6526 227.778 87.736 227.137 89.0013V85.2053H224.381V111.829Z" fill="#AB3B61"/>
<rect x="65.5854" y="143.524" width="64.0546" height="64.0546" rx="18" fill="#EDC8B8"/>
<rect x="155.608" y="142.683" width="63.3267" height="64.0546" rx="18" fill="#EDC8B8"/>
<rect x="112.195" y="226.39" width="64.0546" height="64.0546" rx="18" fill="#EDC8B8"/>
<rect x="198.756" y="226.39" width="64.0546" height="64.0546" rx="18" fill="#EDC8B8"/>
<rect x="245.366" y="142.683" width="64.0546" height="64.0546" rx="18" fill="#EDC8B8"/>
<g clip-path="url(#clip0)">
<path d="M120.177 174.967C120.177 171.977 116.433 169.143 110.693 167.387C112.018 161.537 111.43 156.881 108.835 155.39C108.206 155.038 107.494 154.861 106.774 154.877V156.926C107.197 156.926 107.537 157.011 107.823 157.167C109.074 157.885 109.617 160.616 109.194 164.13C109.092 164.995 108.927 165.905 108.724 166.834C106.801 166.371 104.85 166.036 102.883 165.832C101.712 164.215 100.433 162.679 99.0567 161.232C102.056 158.446 104.871 156.919 106.785 156.919V154.867C104.254 154.867 100.943 156.671 97.5937 159.798C94.2466 156.691 90.9334 154.905 88.4043 154.905V156.954C90.3091 156.954 93.1334 158.474 96.1327 161.242C94.8446 162.596 93.5565 164.13 92.3324 165.832C90.3614 166.034 88.4068 166.372 86.4825 166.843C86.27 165.924 86.114 165.033 86.003 164.177C85.5705 160.661 86.1045 157.93 87.3475 157.205C87.622 157.039 87.9812 156.964 88.4043 156.964V154.914C87.6333 154.914 86.9319 155.08 86.3264 155.428C83.7409 156.919 83.1617 161.563 84.4949 167.396C78.7729 169.164 75.0479 171.986 75.0479 174.967C75.0479 177.957 78.7917 180.79 84.5325 182.545C83.2069 188.396 83.7954 193.052 86.3904 194.542C86.9883 194.891 87.6878 195.057 88.4588 195.057C90.9898 195.057 94.3012 193.254 97.6501 190.126C100.997 193.235 104.309 195.019 106.84 195.019C107.566 195.035 108.283 194.857 108.917 194.504C111.503 193.015 112.082 188.37 110.749 182.537C116.452 180.781 120.177 177.947 120.177 174.967ZM108.199 168.831C107.842 170.061 107.428 171.273 106.958 172.464C106.189 170.969 105.345 169.513 104.429 168.103C105.736 168.297 106.996 168.536 108.201 168.831H108.199ZM103.987 178.628C103.271 179.869 102.534 181.048 101.77 182.142C99.0101 182.386 96.2343 182.389 93.4738 182.152C91.8904 179.89 90.5057 177.495 89.3351 174.995C90.5039 172.489 91.8827 170.086 93.4569 167.812C96.2161 167.568 98.9914 167.564 101.751 167.801C102.515 168.895 103.261 170.065 103.978 171.298C104.677 172.502 105.313 173.724 105.892 174.957C105.306 176.206 104.671 177.43 103.987 178.628V178.628ZM106.958 177.432C107.455 178.664 107.879 179.897 108.227 181.093C107.024 181.388 105.753 181.636 104.438 181.828C105.351 180.406 106.192 178.938 106.958 177.432V177.432ZM97.6313 187.248C96.7758 186.364 95.9202 185.38 95.074 184.303C95.9014 184.34 96.7476 184.369 97.6031 184.369C98.4681 184.369 99.3237 184.35 100.16 184.303C99.3331 185.38 98.4775 186.364 97.6313 187.248ZM90.7867 181.828C89.5189 181.645 88.2602 181.402 87.0147 181.102C87.355 179.916 87.7781 178.692 88.2557 177.47C88.6337 178.203 89.0304 178.94 89.4629 179.677C89.8954 180.412 90.3354 181.131 90.7867 181.828ZM97.5843 162.686C98.4399 163.57 99.2955 164.553 100.142 165.631C99.3143 165.593 98.4681 165.565 97.6125 165.565C96.7476 165.565 95.892 165.584 95.0552 165.631C95.8826 164.553 96.7382 163.57 97.5843 162.686ZM90.7773 168.105C89.8651 169.525 89.0241 170.989 88.2576 172.492C87.7747 171.293 87.3511 170.071 86.9883 168.831C88.1918 168.545 89.4629 168.297 90.7773 168.105ZM82.4528 179.621C79.196 178.233 77.09 176.411 77.09 174.967C77.09 173.523 79.196 171.691 82.4528 170.313C83.2426 169.972 84.1076 169.668 85.0008 169.384C85.5254 171.185 86.2155 173.062 87.0692 174.986C86.2632 176.795 85.5815 178.657 85.029 180.559C84.1554 180.289 83.2957 179.975 82.4528 179.621V179.621ZM87.402 192.765C86.1516 192.05 85.6081 189.316 86.0312 185.803C86.1328 184.938 86.2982 184.026 86.5013 183.098C88.3027 183.539 90.2715 183.88 92.3418 184.102C93.5136 185.718 94.792 187.255 96.1684 188.701C93.1692 191.488 90.3542 193.015 88.44 193.015C88.0788 193.019 87.7223 192.933 87.402 192.767V192.765ZM109.222 185.756C109.655 189.271 109.121 192.003 107.878 192.729C107.603 192.894 107.244 192.968 106.821 192.968C104.916 192.968 102.092 191.45 99.0924 188.68C100.38 187.33 101.669 185.794 102.893 184.092C104.864 183.89 106.818 183.552 108.743 183.081C108.955 184.01 109.119 184.901 109.222 185.756V185.756ZM112.763 179.621C111.973 179.961 111.108 180.266 110.215 180.55C109.653 178.638 108.962 176.766 108.146 174.948C108.993 173.036 109.671 171.168 110.187 169.374C111.099 169.658 111.962 169.972 112.772 170.313C116.029 171.7 118.135 173.523 118.135 174.967C118.126 176.411 116.02 178.242 112.763 179.621V179.621Z" fill="#AB3B61"/>
<path d="M97.6031 179.171C98.7182 179.171 99.7877 178.728 100.576 177.94C101.365 177.151 101.808 176.082 101.808 174.967C101.808 173.852 101.365 172.782 100.576 171.994C99.7877 171.205 98.7182 170.762 97.6031 170.762C96.488 170.762 95.4185 171.205 94.63 171.994C93.8415 172.782 93.3986 173.852 93.3986 174.967C93.3986 176.082 93.8415 177.151 94.63 177.94C95.4185 178.728 96.488 179.171 97.6031 179.171V179.171Z" fill="#AB3B61"/>
</g>
<path d="M199.858 170.028C198.448 169.542 197.203 168.669 196.266 167.508C195.234 166.215 193.92 165.175 192.424 164.468C190.928 163.761 189.29 163.405 187.635 163.428C185.41 163.27 183.206 163.957 181.464 165.351C179.721 166.744 178.568 168.743 178.233 170.949C178.893 169.846 179.885 168.98 181.068 168.477C182.25 167.973 183.562 167.858 184.815 168.148C186.222 168.647 187.465 169.526 188.406 170.686C189.444 171.969 190.761 172.998 192.257 173.696C193.752 174.393 195.387 174.74 197.037 174.71C199.263 174.868 201.466 174.181 203.209 172.788C204.951 171.394 206.104 169.395 206.439 167.189C205.792 168.305 204.802 169.184 203.617 169.695C202.432 170.207 201.114 170.323 199.858 170.028ZM175.413 179.392C176.823 179.878 178.068 180.751 179.004 181.912C180.036 183.205 181.351 184.245 182.847 184.953C184.343 185.66 185.981 186.016 187.635 185.993C189.861 186.15 192.064 185.464 193.807 184.07C195.549 182.676 196.702 180.677 197.037 178.471C196.378 179.574 195.385 180.44 194.203 180.944C193.02 181.447 191.708 181.562 190.456 181.273C189.048 180.773 187.805 179.895 186.864 178.734C185.824 177.455 184.506 176.427 183.011 175.73C181.516 175.033 179.883 174.685 178.233 174.71C176.008 174.553 173.804 175.239 172.062 176.633C170.319 178.027 169.166 180.026 168.831 182.232C169.479 181.115 170.468 180.237 171.653 179.725C172.838 179.214 174.156 179.097 175.413 179.392Z" fill="#AB3B61"/>
<g clip-path="url(#clip1)">
<path d="M151.806 266.393C153.255 266.24 154.356 264.953 154.307 263.41C154.282 262.669 153.977 261.966 153.455 261.448C152.933 260.93 152.235 260.638 151.506 260.633H151.404C149.853 260.683 148.653 262.021 148.702 263.616C148.755 264.388 149.054 265.055 149.505 265.517C147.803 268.965 145.202 271.484 141.299 273.592C138.65 275.034 135.898 275.547 133.148 275.187C130.896 274.879 129.146 273.849 128.045 272.153C126.445 269.634 126.296 266.907 127.645 264.181C128.595 262.228 130.097 260.787 131.047 260.068C130.847 259.399 130.548 258.266 130.397 257.444C123.143 262.845 123.895 270.148 126.093 273.594C127.744 276.166 131.095 277.761 134.798 277.761C135.797 277.761 136.797 277.658 137.798 277.401C144.202 276.116 149.053 272.206 151.804 266.395L151.806 266.393ZM160.609 260.016C156.807 255.439 151.205 252.918 144.803 252.918H144.002C143.774 252.455 143.424 252.066 142.991 251.793C142.559 251.521 142.06 251.376 141.552 251.375H141.45C139.901 251.427 138.699 252.765 138.749 254.359C138.799 255.902 140.05 257.135 141.55 257.135H141.652C142.18 257.107 142.69 256.929 143.123 256.619C143.556 256.31 143.895 255.883 144.102 255.387H145.002C148.804 255.387 152.405 256.518 155.656 258.73C158.157 260.428 159.958 262.638 160.957 265.314C161.809 267.472 161.76 269.581 160.859 271.382C159.457 274.108 157.107 275.599 154.005 275.599C152.005 275.599 150.104 274.982 149.103 274.518C148.383 275.172 147.632 275.79 146.853 276.37C149.003 277.399 151.205 277.965 153.306 277.965C158.108 277.965 161.658 275.239 163.01 272.513C164.459 269.531 164.359 264.388 160.609 260.016ZM135.199 267.267C135.248 268.81 136.499 270.044 137.999 270.044H138.099C139.65 269.994 140.851 268.657 140.802 267.062C140.777 266.32 140.472 265.617 139.95 265.099C139.428 264.582 138.73 264.29 138.001 264.285H137.899C137.8 264.285 137.649 264.285 137.549 264.335C135.499 260.838 134.649 257.033 134.948 252.918C135.148 249.832 136.149 247.158 137.899 244.946C139.351 243.045 142.151 242.119 144.053 242.067C149.354 241.964 151.604 248.753 151.755 251.479C152.405 251.632 153.506 251.992 154.256 252.249C153.655 243.919 148.655 239.599 143.851 239.599C139.351 239.599 135.199 242.941 133.548 247.879C131.247 254.461 132.747 260.787 135.549 265.776C135.299 266.136 135.148 266.702 135.199 267.267V267.267Z" fill="#AB3B61"/>
</g>
<g clip-path="url(#clip2)">
<path d="M212.586 243.471V260.172L217.226 262.958V251.821L226.507 257.391L235.788 251.821V257.391L226.507 262.958V268.526L235.788 274.092L249.709 265.742V254.605L245.068 257.391V262.958L235.788 268.526L231.147 265.742L240.428 260.172V243.471L226.507 251.821L212.586 243.471ZM249.709 243.471L245.068 246.252V251.821L249.709 249.037V243.469V243.471Z" fill="#AB3B61"/>
</g>
<g clip-path="url(#clip3)">
<path d="M287.523 193.065C287.367 193.148 287.38 193.174 287.53 193.098C287.576 193.079 287.618 193.052 287.655 193.018C287.655 192.99 287.655 192.99 287.523 193.065V193.065ZM287.839 192.894C287.764 192.956 287.764 192.956 287.853 192.915C287.886 192.9 287.916 192.879 287.943 192.853C287.943 192.818 287.921 192.826 287.839 192.894V192.894ZM288.044 192.77C287.969 192.832 287.969 192.832 288.058 192.791C288.091 192.776 288.122 192.754 288.148 192.728C288.148 192.695 288.127 192.702 288.044 192.77ZM288.251 192.648C288.177 192.71 288.177 192.71 288.263 192.668C288.312 192.642 288.353 192.614 288.353 192.606C288.353 192.573 288.332 192.58 288.251 192.648ZM288.531 192.463C288.388 192.559 288.338 192.621 288.47 192.552C288.558 192.498 288.708 192.38 288.681 192.38C288.625 192.401 288.577 192.437 288.53 192.463H288.531ZM275.96 153.635C275.864 153.642 275.576 153.668 275.324 153.689C269.345 154.231 263.752 157.449 260.206 162.406C258.247 165.125 256.973 168.277 256.494 171.594C256.324 172.751 256.303 173.092 256.303 174.661C256.303 176.228 256.324 176.564 256.494 177.721C257.639 185.623 263.26 192.256 270.879 194.715C272.25 195.152 273.687 195.455 275.324 195.64C275.96 195.709 278.712 195.709 279.348 195.64C282.177 195.325 284.565 194.627 286.929 193.421C287.292 193.237 287.36 193.188 287.312 193.148C286.158 191.624 285.015 190.092 283.882 188.553L280.52 184.014L276.31 177.776C274.909 175.688 273.494 173.609 272.065 171.54C272.051 171.54 272.032 174.312 272.024 177.694C272.01 183.616 272.01 183.856 271.935 183.993C271.863 184.158 271.734 184.292 271.572 184.37C271.442 184.432 271.325 184.445 270.703 184.445H269.992L269.807 184.33C269.69 184.255 269.596 184.151 269.533 184.028L269.444 183.843L269.45 175.599L269.465 167.356L269.595 167.191C269.678 167.09 269.78 167.007 269.896 166.946C270.068 166.863 270.137 166.85 270.848 166.85C271.682 166.85 271.821 166.882 272.04 167.123C273.746 169.66 275.437 172.207 277.113 174.763C279.846 178.907 283.577 184.561 285.411 187.335L288.746 192.381L288.91 192.272C290.513 191.207 291.965 189.931 293.228 188.48C295.878 185.447 297.597 181.715 298.18 177.73C298.35 176.573 298.371 176.23 298.371 174.663C298.371 173.095 298.35 172.76 298.18 171.603C297.035 163.701 291.414 157.068 283.795 154.608C282.371 154.157 280.905 153.85 279.42 153.692C279.022 153.651 276.303 153.603 275.961 153.638L275.96 153.635ZM284.567 166.357C284.664 166.405 284.752 166.472 284.823 166.554C284.895 166.636 284.949 166.732 284.983 166.835C285.019 166.946 285.025 169.232 285.019 174.381L285.004 181.774L283.704 179.776L282.396 177.776V172.409C282.396 168.929 282.411 166.978 282.429 166.882C282.494 166.662 282.641 166.476 282.841 166.363C283.004 166.28 283.067 166.274 283.717 166.274C284.326 166.274 284.429 166.28 284.565 166.357H284.567Z" fill="#AB3B61"/>
</g>
<defs>
<clipPath id="clip0">
<rect width="45.1294" height="45.1294" fill="white" transform="translate(75.0479 152.987)"/>
</clipPath>
<clipPath id="clip1">
<rect width="39.3062" height="40.0341" fill="white" transform="translate(124.569 238.764)"/>
</clipPath>
<clipPath id="clip2">
<rect width="37.1225" height="38.5783" fill="white" transform="translate(212.586 239.492)"/>
</clipPath>
<clipPath id="clip3">
<rect width="42.0666" height="42.0666" fill="white" transform="translate(256.303 153.62)"/>
</clipPath>
</defs>
</svg>
