<svg width="373" height="373" viewBox="0 0 373 373" fill="none" xmlns="http://www.w3.org/2000/svg">
<path d="M171.439 8.66026C180.721 3.30127 192.157 3.30127 201.439 8.66025L332.9 84.5593C342.182 89.9182 347.9 99.8221 347.9 110.54V262.338C347.9 273.056 342.182 282.96 332.9 288.319L201.439 364.218C192.157 369.577 180.721 369.577 171.439 364.218L39.9781 288.319C30.6961 282.96 24.9781 273.056 24.9781 262.338V110.54C24.9781 99.8221 30.6961 89.9182 39.9781 84.5593L171.439 8.66026Z" fill="#EDE2DC"/>
<path d="M137.762 112.661C140.38 112.661 142.754 112.098 144.886 110.971C147.036 109.845 148.743 108.259 150.008 106.213L147.928 105.043C146.836 106.725 145.424 108.025 143.69 108.943C141.957 109.862 140.007 110.321 137.84 110.321C135.57 110.321 133.542 109.827 131.756 108.839C129.988 107.834 128.602 106.456 127.596 104.705C126.591 102.955 126.088 100.961 126.088 98.7253H150.97C150.988 98.5346 150.996 98.3786 150.996 98.2573C150.996 98.136 150.996 97.9886 150.996 97.8153C150.875 95.198 150.19 92.8839 148.942 90.8733C147.712 88.8453 146.074 87.2593 144.028 86.1153C142 84.954 139.73 84.3733 137.216 84.3733C134.703 84.3733 132.398 85.006 130.3 86.2713C128.203 87.5366 126.522 89.2526 125.256 91.4193C124.008 93.5686 123.384 95.9866 123.384 98.6733C123.384 101.308 124 103.683 125.23 105.797C126.461 107.912 128.16 109.585 130.326 110.815C132.493 112.046 134.972 112.661 137.762 112.661ZM126.218 96.5413C126.444 94.652 127.068 92.9706 128.09 91.4973C129.113 90.0066 130.422 88.8366 132.016 87.9873C133.611 87.138 135.362 86.7133 137.268 86.7133C139.158 86.7133 140.891 87.1466 142.468 88.0133C144.046 88.8626 145.346 90.024 146.368 91.4973C147.391 92.9706 148.015 94.652 148.24 96.5413H126.218ZM154.005 111.829H157.229L167.057 99.7913L176.885 111.829H180.109L168.903 98.1533L178.627 85.2053H175.507L167.057 96.2553L158.633 85.2053H155.487L165.211 98.1533L154.005 111.829ZM191.394 112.661C192.972 112.661 194.306 112.297 195.398 111.569L194.696 109.359C193.916 109.949 192.989 110.243 191.914 110.243C189.574 110.243 188.404 108.605 188.404 105.329V87.2853H195.216V85.2053H188.404V75.2733H185.648V85.2053H183.126V87.2853H185.648V105.459C185.648 107.747 186.142 109.524 187.13 110.789C188.136 112.037 189.557 112.661 191.394 112.661ZM201.451 111.829H204.207V93.5773C204.207 92.416 204.562 91.3239 205.273 90.3013C205.984 89.2613 206.902 88.4206 208.029 87.7793C209.173 87.1206 210.369 86.7913 211.617 86.7913C212.224 86.7913 212.848 86.852 213.489 86.9733C214.13 87.0946 214.694 87.2766 215.179 87.5193L216.297 85.1793C215.049 84.642 213.636 84.3733 212.059 84.3733C208.419 84.3733 205.802 85.9766 204.207 89.1833V85.2053H201.451V111.829ZM232.355 112.661C234.851 112.661 237.104 112.046 239.115 110.815C241.126 109.567 242.686 107.851 243.795 105.667V111.829H246.551V85.2053H243.795V91.3153C242.79 89.1486 241.264 87.45 239.219 86.2193C237.174 84.9886 234.886 84.3733 232.355 84.3733C229.824 84.3733 227.554 84.9886 225.543 86.2193C223.55 87.4326 221.972 89.1053 220.811 91.2373C219.65 93.3693 219.069 95.796 219.069 98.5173C219.069 101.239 219.65 103.665 220.811 105.797C221.99 107.929 223.576 109.611 225.569 110.841C227.58 112.055 229.842 112.661 232.355 112.661ZM232.927 110.217C230.795 110.217 228.897 109.715 227.233 108.709C225.569 107.704 224.26 106.326 223.307 104.575C222.354 102.807 221.877 100.788 221.877 98.5173C221.877 96.2466 222.354 94.236 223.307 92.4853C224.26 90.7173 225.569 89.3306 227.233 88.3253C228.897 87.3199 230.795 86.8173 232.927 86.8173C235.076 86.8173 236.974 87.3199 238.621 88.3253C240.285 89.3133 241.585 90.6913 242.521 92.4593C243.474 94.2099 243.951 96.2293 243.951 98.5173C243.951 100.788 243.474 102.807 242.521 104.575C241.585 106.343 240.285 107.73 238.621 108.735C236.974 109.723 235.076 110.217 232.927 110.217Z" fill="#AB3B61"/>
<rect x="64.6829" y="143.524" width="64.0546" height="64.0546" rx="18" fill="#EDC8B8"/>
<rect x="154.705" y="142.683" width="63.3267" height="64.0546" rx="18" fill="#EDC8B8"/>
<path d="M194.063 171.335C192.161 162.95 187.668 160.201 187.186 159.147C186.655 158.4 186.084 156.987 186.084 156.987C186.079 157.016 186.079 157.034 186.073 157.064V157.082C186.073 157.105 186.068 157.117 186.068 157.14V157.164H186.062V157.24H186.056C186.056 157.251 186.056 157.269 186.051 157.275V157.31C186.051 157.321 186.051 157.334 186.045 157.339V157.369C186.045 157.387 186.045 157.404 186.039 157.416V157.422C186.038 157.448 186.034 157.474 186.028 157.499V157.51C186.022 157.516 186.022 157.521 186.022 157.528V157.552H186.017V157.587H186.011V157.611H186V157.646H185.994V157.675H185.988V157.699H185.983V157.723H185.977V157.746H185.971V157.77H185.966V157.788H185.96V157.812H185.954V157.836H185.949C185.943 157.836 185.943 157.841 185.943 157.841V157.853L185.937 157.864C185.937 157.875 185.932 157.888 185.926 157.899C185.921 157.905 185.921 157.905 185.921 157.91V157.922H185.915V157.933H185.904V157.962H185.892V157.98H185.887V157.986H185.881V157.997H185.875V158.015H185.87V158.027H185.858V158.045H185.853V158.056H185.847V158.067H185.841V158.086H185.836V158.097H185.83V158.102H185.824V158.114H185.813V158.132H185.807V158.138H185.802V158.149H185.796V158.167H185.791V158.173H185.785V158.184H185.779V158.19H185.774V158.208H185.762V158.213H185.757V158.225H185.751V158.23H185.745V158.242H185.74V158.253C185.734 158.253 185.734 158.258 185.734 158.258V158.264H185.728L185.71 158.294C185.71 158.294 185.699 158.305 185.699 158.312C185.693 158.312 185.693 158.317 185.693 158.317V158.323H185.688V158.329H185.682V158.34H185.671V158.346H185.665V158.351H185.659V158.368H185.654V158.374H185.648V158.379H185.642V158.391H185.637V158.379H185.625V158.385H185.62V158.396H185.614V158.408H185.609V158.413H185.603V158.419H185.597V158.425H185.592V158.436H185.58V158.442H185.575V158.453H185.569V158.459H185.563V158.464H185.558V158.482H185.552V158.488H185.546V158.494H185.541V158.499H185.535V158.505H185.524V158.516H185.518V158.522H185.512V158.528H185.507V158.539H185.501V158.545H185.49V158.55H185.484V158.556H185.478V158.567H185.473V158.578H185.467V158.584H185.462V158.59H185.45V158.595H185.445V158.601H185.439V158.612H185.433V158.618H185.428V158.629H185.422V158.635H185.416V158.641H185.411V158.646H185.405V158.652H185.394V158.658C185.388 158.658 185.388 158.663 185.388 158.663L185.382 158.669L185.377 158.675V158.686H185.371V158.691H185.365V158.697H185.36V158.703H185.354L185.343 158.714V158.72C185.332 158.725 185.332 158.731 185.319 158.743C185.319 158.743 185.308 158.755 185.301 158.755C185.283 158.766 185.26 158.79 185.242 158.808C185.231 158.814 185.218 158.826 185.207 158.832C185.183 158.855 185.16 158.872 185.136 158.89C185.101 158.926 185.065 158.949 185.024 158.984H185.018L184.741 159.226H184.736C184.482 159.45 184.182 159.738 183.84 160.08L183.811 160.109C181.761 162.229 178.529 166.65 178.193 173.793C178.158 174.382 178.164 174.959 178.199 175.518V175.53C178.364 178.345 179.247 180.747 180.354 182.702C180.789 183.48 181.266 184.186 181.749 184.822C183.41 187.013 185.105 188.314 185.535 188.632C186.201 190.168 186.141 192.818 186.141 192.818L187.112 193.141C187.112 193.141 186.912 190.579 187.189 189.337C187.277 188.954 187.477 188.625 187.714 188.342C187.879 188.23 188.35 187.889 188.915 187.371C188.945 187.342 188.963 187.318 188.987 187.288C191.277 185.151 195.558 179.887 194.092 171.314L194.063 171.335Z" fill="#AB3B61"/>
<path d="M84.3291 181.078L87.922 157.96C87.9484 157.789 88.0279 157.631 88.1494 157.507C88.2708 157.384 88.4281 157.302 88.5988 157.272C88.7695 157.243 88.9451 157.268 89.1008 157.344C89.2564 157.42 89.3842 157.543 89.466 157.696L93.3305 164.949L84.3291 181.078ZM109.851 186.687L106.43 165.412C106.404 165.264 106.338 165.125 106.239 165.01C106.14 164.896 106.011 164.812 105.867 164.766C105.723 164.719 105.57 164.713 105.423 164.748C105.276 164.783 105.141 164.858 105.033 164.964L83.4559 186.687L95.3958 193.416C96.145 193.835 97.0583 193.835 97.8075 193.416L109.851 186.687ZM100.148 168.121L97.3828 162.829C97.3129 162.697 97.208 162.585 97.0795 162.508C96.951 162.43 96.8037 162.389 96.6536 162.389C96.5035 162.389 96.3562 162.43 96.2277 162.508C96.0992 162.585 95.9944 162.697 95.9245 162.829L83.7822 184.589L100.148 168.121Z" fill="#AB3B61"/>
<rect x="110.341" y="223.537" width="64.0546" height="64.0546" rx="18" fill="#EDC8B8"/>
<rect x="198.805" y="223.537" width="64.0546" height="64.0546" rx="18" fill="#EDC8B8"/>
<rect x="244.463" y="143.634" width="64.0546" height="64.0546" rx="18" fill="#EDC8B8"/>
<path d="M293.296 174.041L277.992 158.741C277.568 158.319 276.993 158.082 276.395 158.082C275.796 158.082 275.221 158.319 274.797 158.741L271.626 161.916L275.656 165.947C276.131 165.786 276.642 165.762 277.131 165.877C277.619 165.992 278.066 166.242 278.419 166.598C278.773 166.953 279.02 167.401 279.133 167.89C279.245 168.38 279.218 168.89 279.054 169.365L282.935 173.251C283.51 173.049 284.136 173.049 284.71 173.251C285.285 173.452 285.774 173.843 286.097 174.359C286.419 174.875 286.557 175.486 286.487 176.091C286.416 176.696 286.142 177.259 285.71 177.687C284.66 178.739 282.965 178.739 281.913 177.687C281.54 177.313 281.284 176.837 281.179 176.319C281.074 175.801 281.124 175.264 281.322 174.774L277.687 171.158V180.688C277.943 180.812 278.189 180.984 278.401 181.196C278.902 181.701 279.183 182.383 279.183 183.094C279.183 183.806 278.902 184.488 278.401 184.993C278.151 185.243 277.854 185.442 277.527 185.577C277.2 185.713 276.849 185.783 276.495 185.783C276.141 185.783 275.791 185.713 275.464 185.577C275.137 185.442 274.84 185.243 274.59 184.993C274.341 184.744 274.143 184.448 274.008 184.123C273.872 183.797 273.803 183.448 273.803 183.096C273.803 182.744 273.872 182.395 274.008 182.069C274.143 181.744 274.341 181.448 274.59 181.2C274.856 180.937 275.154 180.737 275.473 180.605V170.983C275.146 170.849 274.848 170.651 274.597 170.401C274.346 170.151 274.147 169.854 274.012 169.526C273.877 169.199 273.808 168.848 273.809 168.494C273.81 168.14 273.881 167.79 274.019 167.463L270.057 163.483L259.564 173.968C258.687 174.851 258.687 176.281 259.564 177.165L274.867 192.465C275.076 192.675 275.325 192.841 275.599 192.955C275.873 193.068 276.166 193.127 276.463 193.127C276.759 193.127 277.053 193.068 277.327 192.955C277.601 192.841 277.849 192.675 278.059 192.465L293.29 177.235C293.501 177.026 293.669 176.778 293.783 176.504C293.898 176.23 293.957 175.936 293.958 175.639C293.958 175.342 293.9 175.048 293.786 174.774C293.673 174.5 293.506 174.251 293.296 174.041" fill="#AB3B61"/>
<path fill-rule="evenodd" clip-rule="evenodd" d="M137.536 239.522C134.277 239.522 131.655 242.257 131.655 245.607C131.655 247.644 132.625 249.453 134.116 250.557C133.347 251.133 132.725 251.88 132.297 252.74C131.87 253.599 131.65 254.547 131.655 255.507C131.655 257.545 132.625 259.353 134.116 260.457C133.347 261.033 132.725 261.78 132.297 262.64C131.87 263.5 131.65 264.447 131.655 265.407C131.655 268.758 134.277 271.492 137.536 271.492C140.795 271.492 143.418 268.758 143.418 265.407V260.263C144.448 261.122 145.746 261.593 147.088 261.594C150.347 261.592 152.969 258.857 152.969 255.507C152.969 253.469 152 251.661 150.508 250.557C151.277 249.981 151.899 249.234 152.327 248.374C152.754 247.515 152.974 246.567 152.969 245.607C152.969 242.257 150.347 239.522 147.088 239.522H137.536V239.522ZM133.865 245.607C133.865 243.488 135.52 241.79 137.536 241.79H141.206V249.423H137.536C135.52 249.423 133.865 247.725 133.865 245.607V245.607ZM147.088 249.422H143.418V241.789H147.088C149.106 241.789 150.759 243.488 150.759 245.607C150.759 247.725 149.106 249.422 147.088 249.422ZM133.866 255.507C133.866 253.389 135.521 251.691 137.538 251.691H141.208V259.324H137.536C135.518 259.324 133.865 257.625 133.865 255.507H133.866ZM143.418 255.507C143.418 253.389 145.072 251.691 147.089 251.691C149.107 251.691 150.76 253.388 150.76 255.507C150.76 257.625 149.107 259.324 147.089 259.324C145.072 259.324 143.419 257.627 143.419 255.507H143.418ZM133.866 265.407C133.866 263.289 135.521 261.592 137.538 261.592H141.208V265.407C141.208 267.527 139.556 269.224 137.538 269.224C135.521 269.224 133.866 267.527 133.866 265.407Z" fill="#AB3B61"/>
<path d="M228.405 253.459C228.244 252.959 228.099 252.476 227.937 251.976C227.776 251.476 227.631 251.008 227.502 250.54C227.373 250.089 227.26 249.67 227.147 249.283H227.115C226.97 249.976 226.793 250.669 226.567 251.363C226.325 252.137 226.083 252.943 225.825 253.749C225.599 254.572 225.357 255.33 225.115 256.007H229.211C229.115 255.667 228.986 255.265 228.84 254.844C228.695 254.411 228.55 253.943 228.405 253.459V253.459ZM243.273 236.64H218.278C214.489 236.64 211.425 239.704 211.425 243.494V267.521C211.425 271.31 214.489 274.374 218.278 274.374H243.273C247.062 274.374 250.126 271.31 250.126 267.521V243.494C250.126 239.704 247.062 236.64 243.273 236.64ZM235.129 263.296H231.758C231.646 263.312 231.533 263.231 231.501 263.118L230.179 259.28H224.18L222.955 263.07C222.922 263.215 222.793 263.312 222.648 263.297H219.617C219.439 263.297 219.391 263.199 219.439 263.007L224.632 248.057C224.68 247.896 224.728 247.718 224.793 247.525C224.857 247.186 224.89 246.832 224.89 246.477C224.874 246.396 224.938 246.316 225.019 246.299H229.195C229.324 246.299 229.389 246.348 229.405 246.428L235.291 263.038C235.339 263.213 235.291 263.296 235.129 263.296V263.296ZM240.612 263.054C240.612 263.231 240.549 263.312 240.404 263.312H237.242C237.081 263.312 237 263.213 237 263.054V250.637C237 250.476 237.066 250.411 237.211 250.411H240.404C240.549 250.411 240.612 250.492 240.612 250.637V263.054V263.054ZM240.275 248.493C240.085 248.686 239.855 248.836 239.602 248.934C239.348 249.031 239.077 249.073 238.806 249.057C238.274 249.073 237.758 248.863 237.369 248.493C237 248.089 236.803 247.556 236.821 247.009C236.805 246.461 237.014 245.945 237.4 245.574C237.79 245.203 238.306 245.009 238.838 245.009C239.469 245.009 239.949 245.203 240.306 245.574C240.66 245.961 240.854 246.477 240.838 247.009C240.854 247.557 240.66 248.089 240.275 248.493V248.493Z" fill="#AB3B61"/>
</svg>
