<svg width="373" height="373" viewBox="0 0 373 373" fill="none" xmlns="http://www.w3.org/2000/svg">
<path d="M171.439 8.66026C180.721 3.30127 192.157 3.30127 201.439 8.66025L332.9 84.5593C342.182 89.9182 347.9 99.8221 347.9 110.54V262.338C347.9 273.056 342.182 282.96 332.9 288.319L201.439 364.218C192.157 369.577 180.721 369.577 171.439 364.218L39.9781 288.319C30.6961 282.96 24.9781 273.056 24.9781 262.338V110.54C24.9781 99.8221 30.6961 89.9182 39.9781 84.5593L171.439 8.66026Z" fill="#EDE2DC"/>
<path d="M98.6834 112H101.121V72.44H98.6834V112ZM120.112 112.736C122.428 112.736 124.528 112.238 126.414 111.241C128.316 110.244 129.826 108.841 130.945 107.032L129.105 105.997C128.139 107.484 126.89 108.634 125.356 109.447C123.823 110.26 122.098 110.666 120.181 110.666C118.173 110.666 116.379 110.229 114.799 109.355C113.235 108.466 112.009 107.247 111.119 105.698C110.23 104.149 109.785 102.386 109.785 100.408H131.796C131.812 100.239 131.819 100.101 131.819 99.994C131.819 99.8867 131.819 99.7563 131.819 99.603C131.712 97.2877 131.106 95.2407 130.002 93.462C128.914 91.668 127.465 90.265 125.655 89.253C123.861 88.2257 121.853 87.712 119.629 87.712C117.406 87.712 115.367 88.2717 113.511 89.391C111.656 90.5103 110.169 92.0283 109.049 93.945C107.945 95.8463 107.393 97.9853 107.393 100.362C107.393 102.693 107.938 104.793 109.026 106.664C110.115 108.535 111.618 110.014 113.534 111.103C115.451 112.192 117.644 112.736 120.112 112.736ZM109.9 98.476C110.1 96.8047 110.652 95.3173 111.556 94.014C112.461 92.6953 113.619 91.6603 115.029 90.909C116.44 90.1577 117.989 89.782 119.675 89.782C121.347 89.782 122.88 90.1653 124.275 90.932C125.671 91.6833 126.821 92.7107 127.725 94.014C128.63 95.3173 129.182 96.8047 129.381 98.476H109.9ZM147.665 112.736C149.873 112.736 151.866 112.192 153.645 111.103C155.423 109.999 156.803 108.481 157.785 106.549V112H160.223V88.448H157.785V93.853C156.895 91.9363 155.546 90.4337 153.737 89.345C151.927 88.2563 149.903 87.712 147.665 87.712C145.426 87.712 143.417 88.2563 141.639 89.345C139.875 90.4183 138.48 91.898 137.453 93.784C136.425 95.67 135.912 97.8167 135.912 100.224C135.912 102.631 136.425 104.778 137.453 106.664C138.495 108.55 139.898 110.037 141.662 111.126C143.44 112.199 145.441 112.736 147.665 112.736ZM148.171 110.574C146.285 110.574 144.606 110.129 143.134 109.24C141.662 108.351 140.504 107.132 139.661 105.583C138.817 104.019 138.396 102.233 138.396 100.224C138.396 98.2153 138.817 96.4367 139.661 94.888C140.504 93.324 141.662 92.0973 143.134 91.208C144.606 90.3187 146.285 89.874 148.171 89.874C150.072 89.874 151.751 90.3187 153.208 91.208C154.68 92.082 155.83 93.301 156.658 94.865C157.501 96.4137 157.923 98.2 157.923 100.224C157.923 102.233 157.501 104.019 156.658 105.583C155.83 107.147 154.68 108.374 153.208 109.263C151.751 110.137 150.072 110.574 148.171 110.574ZM168.24 112H170.678V95.854C170.678 94.8267 170.993 93.8607 171.621 92.956C172.25 92.036 173.063 91.2923 174.059 90.725C175.071 90.1423 176.129 89.851 177.233 89.851C177.77 89.851 178.322 89.9047 178.889 90.012C179.457 90.1193 179.955 90.2803 180.384 90.495L181.373 88.425C180.269 87.9497 179.02 87.712 177.624 87.712C174.404 87.712 172.089 89.1303 170.678 91.967V88.448H168.24V112ZM185.841 112H188.279V96.291C188.279 95.141 188.563 94.0753 189.13 93.094C189.713 92.0973 190.548 91.2923 191.637 90.679C192.741 90.0657 194.06 89.759 195.593 89.759C197.786 89.759 199.48 90.449 200.676 91.829C201.887 93.1937 202.493 95.1793 202.493 97.786V112H204.931V97.349C204.931 94.2517 204.164 91.875 202.631 90.219C201.098 88.5477 198.959 87.712 196.214 87.712C194.19 87.712 192.503 88.1183 191.154 88.931C189.805 89.7283 188.846 90.6867 188.279 91.806V88.448H185.841V112ZM213.711 83.779C214.187 83.779 214.585 83.618 214.907 83.296C215.245 82.9587 215.413 82.5523 215.413 82.077C215.413 81.6017 215.245 81.203 214.907 80.881C214.585 80.5437 214.187 80.375 213.711 80.375C213.236 80.375 212.83 80.5437 212.492 80.881C212.17 81.203 212.009 81.6017 212.009 82.077C212.009 82.5523 212.17 82.9587 212.492 83.296C212.83 83.618 213.236 83.779 213.711 83.779ZM212.492 112H214.93V88.448H212.492V112ZM222.973 112H225.411V96.291C225.411 95.141 225.695 94.0753 226.262 93.094C226.845 92.0973 227.681 91.2923 228.769 90.679C229.873 90.0657 231.192 89.759 232.725 89.759C234.918 89.759 236.612 90.449 237.808 91.829C239.02 93.1937 239.625 95.1793 239.625 97.786V112H242.063V97.349C242.063 94.2517 241.297 91.875 239.763 90.219C238.23 88.5477 236.091 87.712 233.346 87.712C231.322 87.712 229.636 88.1183 228.286 88.931C226.937 89.7283 225.979 90.6867 225.411 91.806V88.448H222.973V112ZM259.791 124.65C263.563 124.65 266.591 123.646 268.876 121.637C271.176 119.644 272.326 116.646 272.326 112.644V88.448H269.888V93.853C268.922 91.9363 267.55 90.4337 265.771 89.345C263.992 88.2563 261.999 87.712 259.791 87.712C257.552 87.712 255.544 88.2563 253.765 89.345C251.986 90.4183 250.583 91.898 249.556 93.784C248.529 95.67 248.015 97.8167 248.015 100.224C248.015 102.647 248.529 104.801 249.556 106.687C250.599 108.573 252.002 110.053 253.765 111.126C255.544 112.199 257.545 112.736 259.768 112.736C261.961 112.736 263.946 112.192 265.725 111.103C267.519 109.999 268.907 108.481 269.888 106.549V112.92C269.888 114.975 269.443 116.723 268.554 118.164C267.68 119.605 266.484 120.702 264.966 121.453C263.448 122.22 261.731 122.603 259.814 122.603C257.529 122.603 255.498 122.082 253.719 121.039C251.94 120.012 250.675 118.624 249.924 116.876L247.808 117.796C248.82 120.019 250.338 121.714 252.362 122.879C254.401 124.06 256.878 124.65 259.791 124.65ZM260.251 110.574C258.365 110.574 256.686 110.129 255.214 109.24C253.742 108.351 252.584 107.132 251.741 105.583C250.913 104.019 250.499 102.233 250.499 100.224C250.499 98.2153 250.913 96.4367 251.741 94.888C252.584 93.324 253.742 92.0973 255.214 91.208C256.686 90.3187 258.365 89.874 260.251 89.874C262.152 89.874 263.839 90.3187 265.311 91.208C266.783 92.082 267.933 93.301 268.761 94.865C269.604 96.4137 270.026 98.2 270.026 100.224C270.026 102.233 269.604 104.019 268.761 105.583C267.933 107.147 266.783 108.374 265.311 109.263C263.839 110.137 262.152 110.574 260.251 110.574Z" fill="#AB3B61"/>
<path d="M207.731 239.25H194.875L185.5 254.562L177.466 239.25H148L185.5 304.875L223 239.25H207.731ZM157.375 244.719H166.481L185.5 278.625L204.519 244.719H213.625L185.5 293.937L157.375 244.719Z" fill="#AB3B61"/>
<path d="M179.794 179.356H191.206L185.5 165.297L179.794 179.356V179.356Z" fill="#AB3B61"/>
<path d="M185.5 143.125L154.25 154.537L159.016 196.853L185.5 211.875L211.984 196.853L216.75 154.537L185.5 143.125ZM205 195.581H197.719L193.791 185.544H177.209L173.281 195.581H166L185.5 150.722L205 195.581Z" fill="#AB3B61"/>
</svg>
