<svg width="468" height="526" viewBox="0 0 468 526" fill="none" xmlns="http://www.w3.org/2000/svg">
<path d="M160.5 36.3301C165.141 33.6506 170.859 33.6506 175.5 36.3301L222.854 63.6699C227.495 66.3494 230.354 71.3013 230.354 76.6603V131.34C230.354 136.699 227.495 141.651 222.854 144.33L175.5 171.67C170.859 174.349 165.141 174.349 160.5 171.67L113.146 144.33C108.505 141.651 105.646 136.699 105.646 131.34V76.6603C105.646 71.3013 108.505 66.3494 113.146 63.6699L160.5 36.3301Z" fill="#EDE2DC"/>
<path d="M212 103.373C212 97.6089 204.783 92.146 193.715 88.7602C196.271 77.4829 195.137 68.5074 190.134 65.6327C188.922 64.9539 187.55 64.6121 186.161 64.6431V68.5944C186.977 68.5944 187.633 68.7575 188.184 69.0584C190.594 70.4431 191.642 75.7066 190.826 82.4817C190.631 84.1492 190.312 85.9037 189.92 87.6945C186.214 86.8014 182.453 86.156 178.661 85.7624C176.402 82.6459 173.938 79.6837 171.284 76.8956C177.066 71.5234 182.493 68.5799 186.183 68.5799V64.625C181.304 64.625 174.92 68.1014 168.464 74.1297C162.011 68.1412 155.624 64.6975 150.748 64.6975V68.6487C154.421 68.6487 159.865 71.5777 165.647 76.9137C163.164 79.5237 160.681 82.4817 158.321 85.7624C154.521 86.1516 150.753 86.8032 147.044 87.7126C146.634 85.94 146.333 84.2217 146.119 82.5724C145.286 75.7936 146.315 70.5301 148.711 69.1309C149.24 68.8119 149.933 68.6669 150.748 68.6669V64.7156C149.262 64.7156 147.91 65.0346 146.743 65.7052C141.758 68.5799 140.642 77.5336 143.212 88.7784C132.181 92.1859 125 97.627 125 103.373C125 109.136 132.217 114.599 143.285 117.981C140.729 129.262 141.864 138.238 146.866 141.109C148.019 141.783 149.367 142.102 150.853 142.102C155.733 142.102 162.116 138.626 168.573 132.597C175.025 138.589 181.409 142.03 186.288 142.03C187.687 142.059 189.07 141.716 190.293 141.036C195.278 138.165 196.394 129.212 193.824 117.967C204.819 114.581 212 109.118 212 103.373ZM188.909 91.5442C188.22 93.9145 187.422 96.2515 186.516 98.5477C185.034 95.665 183.407 92.8593 181.641 90.1414C184.16 90.5147 186.589 90.9751 188.912 91.5442H188.909ZM180.789 110.43C179.408 112.823 177.987 115.096 176.515 117.206C171.194 117.675 165.843 117.681 160.521 117.224C157.469 112.864 154.799 108.247 152.543 103.427C154.796 98.5952 157.454 93.9629 160.489 89.5795C165.808 89.1096 171.158 89.1023 176.479 89.5577C177.95 91.6675 179.39 93.9222 180.771 96.3002C182.119 98.6202 183.344 100.976 184.461 103.354C183.332 105.761 182.107 108.122 180.789 110.43V110.43ZM186.516 108.125C187.473 110.499 188.293 112.877 188.963 115.183C186.643 115.752 184.193 116.23 181.659 116.6C183.418 113.858 185.039 111.029 186.516 108.125V108.125ZM168.536 127.047C166.887 125.344 165.237 123.448 163.606 121.371C165.201 121.443 166.832 121.498 168.482 121.498C170.149 121.498 171.799 121.461 173.412 121.371C171.817 123.448 170.168 125.344 168.536 127.047ZM155.341 116.6C152.897 116.246 150.471 115.779 148.069 115.201C148.726 112.914 149.541 110.554 150.462 108.197C151.191 109.611 151.955 111.032 152.789 112.453C153.623 113.871 154.471 115.255 155.341 116.6ZM168.446 79.6977C170.095 81.4015 171.744 83.2974 173.376 85.3745C171.781 85.302 170.149 85.2476 168.5 85.2476C166.832 85.2476 165.183 85.2839 163.57 85.3745C165.165 83.2974 166.814 81.4015 168.446 79.6977ZM155.323 90.145C153.565 92.8816 151.943 95.7042 150.466 98.6021C149.535 96.291 148.718 93.9356 148.019 91.5442C150.339 90.9932 152.789 90.5147 155.323 90.145ZM139.275 112.344C132.997 109.669 128.937 106.157 128.937 103.373C128.937 100.589 132.997 97.0579 139.275 94.4007C140.798 93.7446 142.465 93.1574 144.187 92.61C145.199 96.0827 146.529 99.7005 148.175 103.409C146.621 106.897 145.307 110.487 144.242 114.153C142.558 113.632 140.9 113.028 139.275 112.344V112.344ZM148.816 137.683C146.406 136.306 145.358 131.035 146.174 124.263C146.369 122.596 146.688 120.838 147.08 119.047C150.553 119.899 154.348 120.555 158.339 120.983C160.598 124.099 163.063 127.061 165.716 129.85C159.934 135.222 154.508 138.165 150.817 138.165C150.121 138.173 149.434 138.009 148.816 137.687V137.683ZM190.881 124.173C191.714 130.948 190.685 136.215 188.289 137.614C187.76 137.933 187.067 138.075 186.252 138.075C182.579 138.075 177.135 135.149 171.353 129.81C173.836 127.207 176.319 124.245 178.679 120.965C182.479 120.576 186.247 119.924 189.956 119.014C190.366 120.805 190.681 122.523 190.881 124.173V124.173ZM197.707 112.344C196.184 113.001 194.517 113.588 192.795 114.135C191.711 110.45 190.379 106.842 188.807 103.336C190.438 99.6497 191.747 96.0501 192.74 92.5919C194.499 93.1392 196.162 93.7446 197.725 94.4007C204.003 97.076 208.063 100.589 208.063 103.373C208.045 106.157 203.985 109.687 197.707 112.344V112.344Z" fill="#AB3B61"/>
<path d="M168.482 111.478C170.632 111.478 172.693 110.624 174.213 109.104C175.733 107.584 176.587 105.522 176.587 103.373C176.587 101.223 175.733 99.1613 174.213 97.6412C172.693 96.1211 170.632 95.2672 168.482 95.2672C166.332 95.2672 164.271 96.1211 162.751 97.6412C161.23 99.1613 160.376 101.223 160.376 103.373C160.376 105.522 161.23 107.584 162.751 109.104C164.271 110.624 166.332 111.478 168.482 111.478V111.478Z" fill="#AB3B61"/>
<path d="M80.5 157.33C85.141 154.651 90.859 154.651 95.5 157.33L142.854 184.67C147.495 187.349 150.354 192.301 150.354 197.66V252.34C150.354 257.699 147.495 262.651 142.854 265.33L95.5 292.67C90.859 295.349 85.141 295.349 80.5 292.67L33.1462 265.33C28.5052 262.651 25.6462 257.699 25.6462 252.34V197.66C25.6462 192.301 28.5052 187.349 33.1462 184.67L80.5 157.33Z" fill="#EDE2DC"/>
<path d="M110.189 216.493C107.668 215.61 105.443 214.023 103.768 211.914C101.923 209.564 99.5733 207.675 96.899 206.39C94.2246 205.104 91.2966 204.458 88.3387 204.5C84.3599 204.214 80.4209 205.461 77.3061 207.994C74.1914 210.526 72.1294 214.158 71.5309 218.167C72.7098 216.162 74.4839 214.589 76.5981 213.674C78.7124 212.759 81.0576 212.55 83.2964 213.076C85.8132 213.984 88.0348 215.58 89.717 217.688C91.5724 220.019 93.9266 221.89 96.6003 223.157C99.2741 224.424 102.197 225.054 105.147 225C109.125 225.286 113.064 224.039 116.179 221.506C119.294 218.974 121.356 215.342 121.954 211.333C120.797 213.362 119.028 214.959 116.91 215.888C114.791 216.817 112.435 217.029 110.189 216.493ZM66.4886 233.508C69.0096 234.39 71.2348 235.977 72.9092 238.086C74.7545 240.436 77.1042 242.325 79.7785 243.611C82.4528 244.896 85.3809 245.542 88.3387 245.5C92.3176 245.786 96.2566 244.539 99.3714 242.006C102.486 239.474 104.548 235.842 105.147 231.833C103.968 233.838 102.194 235.411 100.079 236.326C97.9651 237.241 95.6199 237.45 93.3811 236.924C90.8643 236.016 88.6427 234.42 86.9605 232.312C85.1001 229.986 82.7449 228.12 80.0724 226.854C77.3998 225.587 74.4794 224.953 71.5309 225C67.5521 224.714 63.6131 225.961 60.4983 228.494C57.3836 231.026 55.3216 234.658 54.7231 238.667C55.8806 236.638 57.6491 235.041 59.7676 234.112C61.8862 233.183 64.2424 232.971 66.4886 233.508Z" fill="#AB3B61"/>
<path d="M313.5 27.3301C318.141 24.6506 323.859 24.6506 328.5 27.3301L375.854 54.6699C380.495 57.3494 383.354 62.3013 383.354 67.6603V122.34C383.354 127.699 380.495 132.651 375.854 135.33L328.5 162.67C323.859 165.349 318.141 165.349 313.5 162.67L266.146 135.33C261.505 132.651 258.646 127.699 258.646 122.34V67.6603C258.646 62.3013 261.505 57.3494 266.146 54.6699L313.5 27.3301Z" fill="#EDE2DC"/>
<g clip-path="url(#clip0)">
<path d="M336.768 110.59C339.735 110.276 341.989 107.642 341.888 104.481C341.838 102.962 341.213 101.522 340.144 100.461C339.076 99.4011 337.646 98.8031 336.154 98.7925H335.946C332.77 98.895 330.312 101.635 330.413 104.901C330.52 106.483 331.134 107.85 332.056 108.796C328.572 115.859 323.247 121.018 315.256 125.337C309.83 128.289 304.196 129.341 298.566 128.603C293.955 127.971 290.37 125.863 288.116 122.388C284.84 117.229 284.535 111.643 287.298 106.06C289.243 102.059 292.318 99.1068 294.263 97.6342C293.854 96.2642 293.24 93.9442 292.932 92.2598C278.08 103.323 279.619 118.281 284.119 125.34C287.499 130.608 294.361 133.875 301.943 133.875C303.988 133.875 306.037 133.663 308.086 133.137C321.198 130.506 331.13 122.497 336.764 110.594L336.768 110.59ZM354.792 97.5283C347.009 88.153 335.537 82.9904 322.428 82.9904H320.789C320.322 82.042 319.605 81.2443 318.72 80.6863C317.834 80.1283 316.813 79.8318 315.772 79.83H315.564C312.392 79.9359 309.93 82.6761 310.034 85.9424C310.135 89.1028 312.697 91.6277 315.769 91.6277H315.977C317.058 91.5707 318.102 91.2047 318.99 90.5714C319.877 89.9382 320.571 89.0634 320.993 88.0471H322.838C330.621 88.0471 337.995 90.3636 344.651 94.8941C349.772 98.3722 353.461 102.899 355.506 108.38C357.25 112.801 357.149 117.119 355.305 120.809C352.435 126.392 347.622 129.447 341.271 129.447C337.177 129.447 333.283 128.183 331.234 127.233C329.76 128.573 328.222 129.838 326.627 131.025C331.03 133.133 335.537 134.292 339.839 134.292C349.671 134.292 356.942 128.709 359.708 123.126C362.676 117.017 362.471 106.483 354.792 97.5283ZM302.764 112.381C302.865 115.541 305.427 118.069 308.498 118.069H308.703C311.879 117.967 314.337 115.227 314.236 111.96C314.186 110.441 313.561 109.001 312.492 107.941C311.423 106.88 309.994 106.282 308.502 106.272H308.294C308.089 106.272 307.781 106.272 307.576 106.374C303.378 99.2127 301.637 91.4193 302.251 82.9904C302.66 76.6696 304.709 71.1926 308.294 66.6621C311.265 62.7671 316.999 60.8709 320.893 60.765C331.748 60.5531 336.355 74.459 336.664 80.0418C337.995 80.3562 340.248 81.0941 341.784 81.6203C340.554 64.5575 330.316 55.7083 320.48 55.7083C311.265 55.7083 302.764 62.5553 299.384 72.6686C294.672 86.1508 297.744 99.1068 303.482 109.326C302.969 110.064 302.66 111.222 302.764 112.381V112.381Z" fill="#AB3B61"/>
</g>
<path d="M160.5 286.33C165.141 283.651 170.859 283.651 175.5 286.33L222.854 313.67C227.495 316.349 230.354 321.301 230.354 326.66V381.34C230.354 386.699 227.495 391.651 222.854 394.33L175.5 421.67C170.859 424.349 165.141 424.349 160.5 421.67L113.146 394.33C108.505 391.651 105.646 386.699 105.646 381.34V326.66C105.646 321.301 108.505 316.349 113.146 313.67L160.5 286.33Z" fill="#EDE2DC"/>
<g clip-path="url(#clip1)">
<path d="M129 321.456V356.955L138.856 362.877V339.206L158.567 351.045L178.279 339.206V351.045L158.567 362.877V374.712L178.279 386.544L207.846 368.794V345.124L197.99 351.045V362.877L178.279 374.712L168.423 368.794L188.135 356.955V321.456L158.567 339.206L129 321.456ZM207.846 321.456L197.99 327.367V339.206L207.846 333.288V321.453V321.456Z" fill="#AB3B61"/>
</g>
<path d="M241.5 157.33C246.141 154.651 251.859 154.651 256.5 157.33L303.854 184.67C308.495 187.349 311.354 192.301 311.354 197.66V252.34C311.354 257.699 308.495 262.651 303.854 265.33L256.5 292.67C251.859 295.349 246.141 295.349 241.5 292.67L194.146 265.33C189.505 262.651 186.646 257.699 186.646 252.34V197.66C186.646 192.301 189.505 187.349 194.146 184.67L241.5 157.33Z" fill="#EDE2DC"/>
<g clip-path="url(#clip2)">
<path d="M268.857 260.888C268.552 261.049 268.577 261.101 268.87 260.952C268.96 260.915 269.042 260.862 269.113 260.796C269.113 260.742 269.113 260.742 268.857 260.888V260.888ZM269.472 260.555C269.326 260.675 269.326 260.675 269.5 260.596C269.564 260.566 269.623 260.525 269.674 260.475C269.674 260.406 269.633 260.421 269.472 260.555V260.555ZM269.872 260.314C269.726 260.434 269.726 260.434 269.9 260.355C269.964 260.324 270.023 260.282 270.074 260.232C270.074 260.168 270.033 260.181 269.872 260.314ZM270.276 260.076C270.13 260.196 270.13 260.196 270.3 260.114C270.394 260.063 270.474 260.009 270.474 259.994C270.474 259.929 270.433 259.942 270.276 260.076ZM270.822 259.714C270.543 259.901 270.446 260.022 270.702 259.888C270.873 259.783 271.166 259.553 271.114 259.553C271.004 259.594 270.912 259.663 270.82 259.714H270.822ZM246.317 184.028C246.13 184.041 245.569 184.092 245.077 184.133C233.423 185.189 222.519 191.462 215.608 201.125C211.789 206.425 209.306 212.569 208.372 219.035C208.041 221.29 208 221.956 208 225.013C208 228.067 208.041 228.723 208.372 230.978C210.603 246.382 221.561 259.312 236.413 264.104C239.086 264.957 241.886 265.546 245.077 265.908C246.317 266.041 251.68 266.041 252.921 265.908C258.435 265.293 263.091 263.932 267.699 261.582C268.406 261.224 268.539 261.129 268.444 261.049C266.197 258.078 263.968 255.093 261.759 252.093L255.206 243.245L246.999 231.086C244.269 227.015 241.51 222.963 238.724 218.929C238.696 218.929 238.66 224.334 238.645 230.925C238.617 242.469 238.617 242.938 238.471 243.204C238.331 243.526 238.08 243.787 237.763 243.939C237.51 244.06 237.282 244.086 236.07 244.086H234.683L234.322 243.86C234.096 243.715 233.912 243.512 233.789 243.273L233.615 242.912L233.628 226.842L233.656 210.773L233.909 210.453C234.071 210.256 234.271 210.093 234.496 209.974C234.832 209.812 234.965 209.786 236.352 209.786C237.979 209.786 238.248 209.851 238.676 210.319C242.001 215.265 245.297 220.229 248.564 225.213C253.892 233.29 261.164 244.311 264.739 249.718L271.24 259.555L271.56 259.343C274.685 257.266 277.516 254.78 279.978 251.95C285.143 246.038 288.494 238.763 289.631 230.996C289.962 228.741 290.003 228.072 290.003 225.018C290.003 221.961 289.962 221.307 289.631 219.052C287.399 203.649 276.442 190.719 261.59 185.924C258.814 185.045 255.957 184.447 253.062 184.138C252.285 184.059 246.986 183.964 246.32 184.033L246.317 184.028ZM263.094 208.826C263.284 208.919 263.454 209.05 263.594 209.21C263.733 209.37 263.84 209.557 263.906 209.758C263.975 209.974 263.988 214.43 263.975 224.467L263.947 238.879L261.413 234.984L258.863 231.086V220.623C258.863 213.84 258.891 210.038 258.927 209.851C259.053 209.422 259.34 209.059 259.729 208.838C260.047 208.677 260.17 208.664 261.438 208.664C262.625 208.664 262.825 208.677 263.091 208.826H263.094Z" fill="#AB3B61"/>
</g>
<path d="M295.5 301.33C300.141 298.651 305.859 298.651 310.5 301.33L345.729 321.67C350.37 324.349 353.229 329.301 353.229 334.66V375.34C353.229 380.699 350.37 385.651 345.729 388.33L310.5 408.67C305.859 411.349 300.141 411.349 295.5 408.67L260.271 388.33C255.63 385.651 252.771 380.699 252.771 375.34V334.66C252.771 329.301 255.63 324.349 260.271 321.67L295.5 301.33Z" fill="#EDE2DC"/>
<path d="M348 405.887C351.094 404.1 354.906 404.1 358 405.887L382.641 420.113C385.735 421.9 387.641 425.201 387.641 428.774V457.226C387.641 460.799 385.735 464.1 382.641 465.887L358 480.113C354.906 481.9 351.094 481.9 348 480.113L323.359 465.887C320.265 464.1 318.359 460.799 318.359 457.226V428.774C318.359 425.201 320.265 421.9 323.359 420.113L348 405.887Z" fill="#EDE2DC"/>
<path d="M423 178.887C426.094 177.1 429.906 177.1 433 178.887L457.641 193.113C460.735 194.9 462.641 198.201 462.641 201.774V230.226C462.641 233.799 460.735 237.1 457.641 238.887L433 253.113C429.906 254.9 426.094 254.9 423 253.113L398.359 238.887C395.265 237.1 393.359 233.799 393.359 230.226V201.774C393.359 198.201 395.265 194.9 398.359 193.113L423 178.887Z" fill="#EDE2DC"/>
<path d="M35 66.8868C38.094 65.1004 41.906 65.1004 45 66.8868L69.641 81.1132C72.735 82.8996 74.641 86.2008 74.641 89.7735V118.226C74.641 121.799 72.735 125.1 69.641 126.887L45 141.113C41.906 142.9 38.094 142.9 35 141.113L10.359 126.887C7.26497 125.1 5.35898 121.799 5.35898 118.226V89.7735C5.35898 86.2008 7.26497 82.8996 10.359 81.1132L35 66.8868Z" fill="#EDE2DC"/>
<path d="M310 481.732C311.856 480.66 314.144 480.66 316 481.732L329.919 489.768C331.775 490.84 332.919 492.821 332.919 494.964V511.036C332.919 513.179 331.775 515.16 329.919 516.232L316 524.268C314.144 525.34 311.856 525.34 310 524.268L296.081 516.232C294.225 515.16 293.081 513.179 293.081 511.036V494.964C293.081 492.821 294.225 490.84 296.081 489.768L310 481.732Z" fill="#EDE2DC"/>
<path d="M390 1.73205C391.856 0.660254 394.144 0.660254 396 1.73205L409.919 9.76795C411.775 10.8397 412.919 12.8205 412.919 14.9641V31.0359C412.919 33.1795 411.775 35.1603 409.919 36.2321L396 44.2679C394.144 45.3397 391.856 45.3397 390 44.2679L376.081 36.2321C374.225 35.1603 373.081 33.1795 373.081 31.0359V14.9641C373.081 12.8205 374.225 10.8397 376.081 9.76795L390 1.73205Z" fill="#EDE2DC"/>
<g clip-path="url(#clip3)">
<path d="M297.014 348.726C296.861 350.645 298.547 352.057 299.697 352.057C300.848 352.004 305.333 348.224 305.333 348.224C307.443 345.556 307.452 344.37 307.452 343.437C307.276 339.321 299.776 345.591 297.014 348.726V348.726ZM315.567 347.133C316.585 344.978 315.215 342.585 312.236 344.687C309.868 346.192 306.803 349.287 305.337 350.499C304.656 351.873 306.381 355.645 309.114 353.654C312.344 351.306 314.703 349.1 315.567 347.133V347.133ZM318.339 334.099L318.995 330H326.234V337.483L323.581 337.514L320.387 348.333C320.586 352.152 318.649 352.214 318.402 353.966C317.78 358.369 312.856 361.972 310.973 361.972C309.717 361.936 308.8 360.497 308.491 359.243C312.032 355.327 316.793 352.249 316.793 352.249C317.09 350.19 316.437 349.534 318.634 347.779L320.731 336.754C318.94 335.572 318.104 335.59 318.339 334.099V334.099ZM304.21 352.358C306.046 356.057 308.699 356.153 312.812 351.444C312.909 351.879 313.016 352.335 312.82 353.43C304.454 360.914 296.574 368.196 294.175 369H287.234V367.138C288.363 365.573 297.627 357.931 304.21 352.358V352.358ZM316.575 359.52C316.198 362.722 313.279 365.524 309.378 369H297.015L307.438 360.221C309.237 364.315 312.433 363.722 316.575 359.52H316.575ZM301.955 352.252L287.234 364.799V356.659L295.897 349.607C296.36 352.232 299.199 354.543 301.955 352.252V352.252Z" fill="#AB3B61"/>
</g>
<path d="M279.591 362.76V359.796L270.399 356.016L279.591 352.236V349.272L266.487 354.792V357.24L279.591 362.76ZM325.387 362.76L338.503 357.24V354.792L325.387 349.272V352.236L334.591 356.016L325.387 359.796V362.76Z" fill="#AB3B61"/>
<defs>
<clipPath id="clip0">
<rect width="80.4815" height="82" fill="white" transform="translate(281 54)"/>
</clipPath>
<clipPath id="clip1">
<rect width="78.8462" height="82" fill="white" transform="translate(129 313)"/>
</clipPath>
<clipPath id="clip2">
<rect width="82" height="82" fill="white" transform="translate(208 184)"/>
</clipPath>
<clipPath id="clip3">
<rect width="39" height="39" fill="white" transform="translate(287.234 330)"/>
</clipPath>
</defs>
</svg>
